<?xml version="1.0" encoding="UTF-8"?>
<svg id="Devices" xmlns="http://www.w3.org/2000/svg" width="300" height="200" viewBox="0 0 300 200">
  <defs>
    <style>
      .cls-1, .cls-2 {
        fill: #646464;
      }

      .cls-1, .cls-2, .cls-3, .cls-4, .cls-5 {
        stroke: #000;
      }

      .cls-1, .cls-3 {
        stroke-linecap: round;
        stroke-linejoin: round;
      }

      .cls-2, .cls-6, .cls-4, .cls-5, .cls-7 {
        stroke-miterlimit: 10;
      }

      .cls-3, .cls-6, .cls-7 {
        fill: none;
      }

      .cls-6 {
        stroke: #646464;
      }

      .cls-4 {
        fill: #c9c9c9;
      }

      .cls-7 {
        stroke: #ff4600;
        stroke-width: 3px;
      }
    </style>
  </defs>
  <path class="cls-7" d="M101.42,130.47h-27.75c-5.54,0-10.03,4.49-10.03,10.03v81.38"/>
  <path class="cls-7" d="M64.9,88.21l-8.79,8.79c-1.61,1.61-3.79,2.51-6.06,2.51h-15.49c-4.34,0-7.85,3.52-7.85,7.85v43.45c0,4.46-3.61,8.07-8.07,8.07H-25.47"/>
  <path class="cls-7" d="M249.34,85.61v45.85c0,3.93-3.18,7.11-7.11,7.11h-17.52c-4.32,0-7.83,3.5-7.83,7.83v28.18c0,3.78,3.06,6.84,6.84,6.84h113.31"/>
  <g>
    <g>
      <path class="cls-5" d="M114.86,55.95c-5.36,5.36-24.78-14.05-19.42-19.42,5.36-5.36,14.05-5.36,19.42,0,5.36,5.36,5.36,14.05,0,19.42Z"/>
      <path class="cls-2" d="M112.79,54.97l-16.12-16.12c-1.42-1.42-3.73-1.42-5.16,0-.82.82-1.16,1.96-1.03,3.04h0l.68,5.55c.08.38-.05.78-.32,1.06l-23.34,25.1c-.35.36-.43.92-.21,1.36l.52,1.11c.21.43.14.93-.16,1.3l-8.31,10.27c-.4.49-.36,1.2.08,1.65l4.21,4.21c.46.46,1.2.49,1.69.05l9.59-8.5c.36-.32.87-.4,1.31-.21l1.09.47c.46.21,1,.09,1.34-.24l25.06-24.23c.28-.28.71-.4,1.11-.32l4.79.62h0c1.11.17,2.29-.16,3.15-1.01h0c1.42-1.42,1.42-3.73,0-5.16Z"/>
    </g>
    <path class="cls-4" d="M94.88,56.76h0c1.08,1.08,1.08,2.82,0,3.89l-6.73,6.69c-1.08,1.08-2.82,1.08-3.89,0h0c-1.08-1.08-1.08-2.82,0-3.89l6.73-6.69c1.08-1.08,2.82-1.08,3.89,0Z"/>
  </g>
  <path class="cls-1" d="M269.09,44.53h-53.73v-5.5c0-.65.25-1.28.69-1.77l2.26-2.46c.54-.59,1.31-.93,2.1-.93h34.04c2.39,0,4.6-1.58,5.07-3.92.65-3.13-1.76-5.92-4.78-5.92h-38.12c-.99,0-1.96.4-2.66,1.11l-8,8.13c-.67.67-1.02,1.58-1.02,2.52v8.74h-4.23c-1.89,0-3.42,1.53-3.42,3.42v4.33h-12.15l-15.52-13.71c-.61-.5-1.37-.77-2.14-.77h-4.73c-1.73,0-3.13,1.4-3.13,3.13v45.89c0,1.73,1.4,3.13,3.13,3.13h4.73c.79,0,1.55-.27,2.14-.77l15.52-13.36h12.15v4.35c0,1.24.5,2.41,1.38,3.27l7.46,7.25c.85.83,2,1.29,3.18,1.29h51.53c1.19,0,2.32-.47,3.18-1.29l7.1-6.9c.88-.86,1.38-2.03,1.38-3.27v-32.55c0-1.89-1.53-3.42-3.42-3.42h-.02Z"/>
  <rect class="cls-5" x="209.29" y="53.61" width="39.48" height="20.03" rx="3.06" ry="3.06"/>
  <g>
    <circle class="cls-4" cx="261.81" cy="54.36" r="2.9"/>
    <circle class="cls-4" cx="261.81" cy="63.63" r="2.9"/>
    <path class="cls-4" d="M261.24,70.05c2.04-.39,3.8,1.37,3.41,3.41-.21,1.13-1.14,2.06-2.28,2.28-2.04.39-3.8-1.37-3.41-3.41.21-1.13,1.14-2.06,2.28-2.28Z"/>
  </g>
  <path class="cls-2" d="M168.19,115.34h-57.42c-.34-2.08-2.15-3.68-4.32-3.68h-9.94c-2.41,0-4.39,1.97-4.39,4.39v44.21c0,2.41,1.97,4.39,4.39,4.39h71.68c2.27,0,4.12-1.85,4.12-4.12v-41.05c0-2.27-1.85-4.12-4.12-4.12Z"/>
  <circle class="cls-5" cx="135.06" cy="141.71" r="18.08"/>
  <circle class="cls-6" cx="135.06" cy="141.71" r="14.01"/>
  <rect class="cls-4" x="153.13" y="120.12" width="13.84" height="7.03" rx="3.52" ry="3.52"/>
  <line class="cls-3" x1="212.87" y1="80.53" x2="245.2" y2="80.53"/>
  <line class="cls-3" x1="212.87" y1="84.36" x2="245.2" y2="84.36"/>
  <line class="cls-3" x1="185.14" y1="52.27" x2="185.14" y2="75.79"/>
  <line class="cls-3" x1="185.14" y1="52.27" x2="185.14" y2="75.79"/>
  <line class="cls-3" x1="197.3" y1="52.27" x2="197.3" y2="75.79"/>
  <line class="cls-3" x1="185.14" y1="55.58" x2="197.3" y2="55.58"/>
  <line class="cls-3" x1="185.14" y1="58.97" x2="197.3" y2="58.97"/>
  <line class="cls-3" x1="185.14" y1="62.36" x2="197.3" y2="62.36"/>
  <line class="cls-3" x1="185.14" y1="65.75" x2="197.3" y2="65.75"/>
  <line class="cls-3" x1="185.14" y1="69.14" x2="197.3" y2="69.14"/>
  <line class="cls-3" x1="185.14" y1="72.53" x2="197.3" y2="72.53"/>
  <circle class="cls-4" cx="101.95" cy="123.93" r="3.31"/>
  <circle class="cls-4" cx="101.95" cy="133.41" r="3.31"/>
</svg>