<?xml version="1.0" encoding="UTF-8"?>
<svg id="Devices" xmlns="http://www.w3.org/2000/svg" width="300" height="200" viewBox="0 0 300 200">
  <defs>
    <style>
      .cls-1, .cls-2, .cls-3, .cls-4, .cls-5, .cls-6, .cls-7, .cls-8 {
        stroke: #000;
      }

      .cls-1, .cls-2, .cls-3, .cls-4, .cls-5, .cls-7, .cls-8 {
        stroke-miterlimit: 10;
      }

      .cls-1, .cls-4 {
        fill: #646464;
      }

      .cls-2 {
        fill: #929292;
      }

      .cls-3 {
        fill: #ff4600;
      }

      .cls-4 {
        stroke-width: .93px;
      }

      .cls-5 {
        stroke-width: 1.1px;
      }

      .cls-5, .cls-7 {
        fill: #c9c9c9;
      }

      .cls-6 {
        fill: none;
        stroke-linecap: round;
        stroke-linejoin: round;
      }
    </style>
  </defs>
  <path class="cls-7" d="M229.38,131.59v-65.49c0-2.85-2.31-5.16-5.16-5.16H75.78c-2.85,0-5.16,2.31-5.16,5.16v65.49h158.76Z"/>
  <path class="cls-2" d="M222.63,131.59v-61.68c0-1.14-.93-2.07-2.07-2.07H79.44c-1.14,0-2.07.93-2.07,2.07v61.68h145.26Z"/>
  <circle class="cls-3" cx="150" cy="55.01" r="25.98"/>
  <rect class="cls-4" x="70.62" y="136.37" width="158.76" height="66.52"/>
  <path class="cls-1" d="M182.63,97.07h20.22c1.97,0,3.57,1.6,3.57,3.57v30.96h-27.37v-30.96c0-1.97,1.6-3.57,3.57-3.57h.01Z"/>
  <path class="cls-1" d="M94.06,109.97h52.37c1.97,0,3.57,1.6,3.57,3.57v18.05h-59.52v-18.05c0-1.97,1.6-3.57,3.57-3.57h.01Z"/>
  <path class="cls-8" d="M242.71,143.17H57.29c-2.13,0-2.85-2.84-.97-3.85l14.3-7.73h158.76l14.3,7.73c1.87,1.01,1.15,3.85-.97,3.85Z"/>
  <line class="cls-6" x1="182.99" y1="123.95" x2="202.49" y2="123.95"/>
  <line class="cls-6" x1="182.99" y1="117.86" x2="202.49" y2="117.86"/>
  <line class="cls-6" x1="182.99" y1="111.75" x2="202.49" y2="111.75"/>
  <line class="cls-6" x1="182.99" y1="105.65" x2="202.49" y2="105.65"/>
  <g>
    <path class="cls-7" d="M156.17,65.55v-14.26c0-.7-.57-1.27-1.27-1.27h-11.99c-.56,0-1.01.46-1.01,1.01v2.81c0,.56.46,1.01,1.01,1.01h2.55v10.7h-2.55c-.56,0-1.01.46-1.01,1.01v2.81c0,.56.46,1.01,1.01,1.01h15.11c.56,0,1.01-.46,1.01-1.01v-2.81c0-.56-.46-1.01-1.01-1.01h-1.85,0Z"/>
    <circle class="cls-5" cx="150.38" cy="42.69" r="5.12"/>
  </g>
</svg>