<?xml version="1.0" encoding="UTF-8"?>
<svg id="Devices" xmlns="http://www.w3.org/2000/svg" width="300" height="200" viewBox="0 0 300 200">
  <defs>
    <style>
      .cls-1 {
        stroke-width: .16px;
      }

      .cls-1, .cls-2, .cls-3, .cls-4, .cls-5, .cls-6, .cls-7, .cls-8, .cls-9, .cls-10, .cls-11, .cls-12, .cls-13, .cls-14, .cls-15, .cls-16, .cls-17 {
        stroke: #000;
      }

      .cls-1, .cls-2, .cls-8, .cls-15 {
        stroke-miterlimit: 10;
      }

      .cls-1, .cls-3, .cls-4, .cls-5, .cls-6 {
        fill: #646464;
      }

      .cls-2 {
        stroke-width: .36px;
      }

      .cls-2, .cls-15 {
        fill: #c9c9c9;
      }

      .cls-3, .cls-9, .cls-14, .cls-16, .cls-17 {
        stroke-linecap: round;
        stroke-linejoin: round;
      }

      .cls-4, .cls-7 {
        stroke-miterlimit: 10;
        stroke-width: .51px;
      }

      .cls-5, .cls-11, .cls-12 {
        stroke-miterlimit: 10;
        stroke-width: 1px;
      }

      .cls-6, .cls-10, .cls-13 {
        stroke-miterlimit: 10;
        stroke-width: 1px;
      }

      .cls-18, .cls-7, .cls-8, .cls-10, .cls-11, .cls-19 {
        fill: #ff4600;
      }

      .cls-18, .cls-20, .cls-19 {
        isolation: isolate;
      }

      .cls-18, .cls-19 {
        font-family: Tentacle-Mono, Tentacle;
        font-size: 12.51px;
      }

      .cls-8 {
        stroke-width: .51px;
      }

      .cls-9 {
        fill: none;
      }

      .cls-19 {
        letter-spacing: .03em;
      }

      .cls-21 {
        fill: #00aa82;
      }

      .cls-16 {
        stroke-width: 1px;
      }

      .cls-16, .cls-17 {
        fill: #929292;
      }

      .cls-17 {
        stroke-width: 1px;
      }
    </style>
  </defs>
  <g>
    <g>
      <rect class="cls-6" x="30.39" y="31.65" width="69.41" height="107.51" rx="6.29" ry="6.29" transform="translate(-4.92 3.99) rotate(-3.38)"/>
      <rect class="cls-10" x="28.22" y="45.8" width="69.41" height="5.91" transform="translate(-2.77 3.79) rotate(-3.38)"/>
      <path class="cls-13" d="M58.79,42.43l7.51-.44c1.99-.12,3.7,1.4,3.81,3.39l-14.72.87c-.12-1.99,1.4-3.7,3.39-3.81h0Z"/>
      <circle class="cls-21" cx="50.65" cy="56.67" r="1.31"/>
      <circle class="cls-21" cx="57.01" cy="56.29" r="1.31"/>
      <circle class="cls-21" cx="63.36" cy="55.92" r="1.31"/>
      <circle cx="69.71" cy="55.54" r="1.31"/>
      <circle cx="76.06" cy="55.17" r="1.31"/>
    </g>
    <g>
      <polygon points="49.5 114.96 49.56 115.89 50.81 115.82 51.08 119.96 52.04 119.89 51.77 115.76 53.02 115.67 52.95 114.73 49.5 114.96"/>
      <polygon points="54.04 119.77 53.71 114.69 57.05 114.47 57.12 115.39 54.73 115.55 54.77 116.3 56.86 116.16 56.92 117.11 54.84 117.25 54.94 118.76 57.26 118.6 57.33 119.55 54.04 119.77"/>
      <polygon points="61.59 119.27 59.12 116.09 59.33 119.42 58.38 119.48 58.05 114.4 58.97 114.34 61.44 117.51 61.23 114.19 62.18 114.13 62.51 119.21 61.59 119.27"/>
      <polygon points="64.59 119.07 64.32 114.93 63.07 115.02 63.01 114.07 66.46 113.85 66.52 114.79 65.28 114.87 65.55 119.01 64.59 119.07"/>
      <path d="M69.18,116.45l-.55-1.2-.39,1.26.94-.06ZM70.22,118.7l-.61-1.34-1.68.11-.44,1.4-1.02.06,1.62-5.21.86-.05,2.3,4.95-1.03.06h0Z"/>
      <path d="M72.99,118.39c-.32-.12-.62-.29-.88-.51-.27-.23-.48-.5-.62-.81-.16-.32-.26-.66-.28-1.02-.09-1.46,1.03-2.74,2.49-2.83.41-.03.83.05,1.21.21.38.16.72.41.99.72l.12.14-.72.61-.12-.14c-.35-.41-.87-.63-1.42-.59-.94.06-1.67.88-1.6,1.82s.88,1.67,1.82,1.61c.54-.04,1.03-.32,1.33-.78l.1-.15.8.5-.1.15c-.23.35-.52.64-.89.84-.35.21-.75.33-1.16.36-.36.03-.71-.03-1.05-.14"/>
      <polygon points="77.07 118.26 76.74 113.18 77.69 113.11 77.96 117.26 80.55 117.09 80.61 118.03 77.07 118.26"/>
      <polygon points="81.07 112.89 81.41 117.97 84.68 117.76 84.62 116.82 82.29 116.97 82.19 115.45 84.28 115.32 84.22 114.37 82.14 114.51 82.08 113.76 84.47 113.61 84.42 112.67 81.07 112.89"/>
      <path d="M60.12,125.92c-.49-.08-1.01-.3-1.48-.67l.17-.23c1.01.76,1.89.75,2.41.48.41-.22.62-.61.59-1.08-.02-.35-.2-.6-.56-.77-.31-.15-.67-.19-.87-.22-.05,0-.09-.02-.13-.02-.05,0-.09-.02-.16-.03-.26-.04-.63-.08-.94-.24-.4-.2-.62-.53-.65-.97-.02-.24.04-.49.16-.7.12-.21.3-.38.53-.5.33-.18.71-.23,1.12-.19.46.05.91.22,1.35.54l-.16.23c-.75-.55-1.57-.68-2.17-.35-.38.21-.59.57-.56.94.05.71.72.86,1.35.94.06,0,.12,0,.16.03.03,0,.07,0,.12.02.22.03.61.08.97.25.2.09.37.22.49.37.14.18.22.39.24.64.02.28-.04.56-.17.8-.13.23-.32.41-.57.54-.22.12-.47.19-.74.21-.16,0-.33,0-.49-.03"/>
      <polygon points="65.65 120.42 64.24 122.7 62.54 120.62 62.2 120.64 64.11 122.97 64.27 125.6 64.57 125.59 64.39 122.95 65.98 120.39 65.65 120.42"/>
      <polygon points="70.29 120.11 70.59 124.69 67.18 120.31 66.9 120.33 67.23 125.41 67.51 125.39 67.22 120.82 70.61 125.19 70.9 125.17 70.57 120.1 70.29 120.11"/>
      <g>
        <path d="M73.72,124.86c-.33-.12-.62-.29-.89-.51-.26-.23-.47-.5-.62-.81-.16-.32-.25-.66-.27-1.03s.03-.71.14-1.04c.12-.32.29-.62.51-.89.24-.26.5-.47.81-.62.32-.16.67-.24,1.03-.26.38-.03.77.02,1.13.16.35.14.65.33.92.59l-.2.21c-.49-.48-1.15-.73-1.83-.69-1.31.08-2.31,1.23-2.22,2.54s1.22,2.32,2.54,2.22c.68-.05,1.31-.38,1.72-.92l.23.18c-.23.29-.51.53-.83.7-.34.18-.71.28-1.1.31-.36.03-.71-.02-1.04-.13"/>
        <path d="M62.26,97.04l-.39-5.99c-.28.11-.59.18-.91.2-.3.02-.59,0-.88-.07l.39,5.97c.09,1.44-1,2.68-2.43,2.77s-2.68-1-2.77-2.43,1-2.68,2.43-2.77l-.12-1.78c-2.42.16-4.26,2.25-4.1,4.68s2.25,4.26,4.68,4.1,4.26-2.25,4.1-4.68h0Z"/>
        <g>
          <path d="M71.21,100.6c-2.38-.11-2.77-1.24-2.86-2.43l-.54-8.25c-.59-.51-.98-1.25-1.03-2.09-.11-1.67,1.16-3.12,2.83-3.23.67-.05,1.31.14,1.83.48,1.59-3.34,2.46-7.41,2.29-10.08-.33-5.11-4.67-7.8-9.77-7.47s-9.05,3.57-8.72,8.68c.17,2.66,1.57,6.59,3.58,9.69.48-.4,1.08-.67,1.76-.71,1.67-.11,3.11,1.16,3.22,2.83.05.84-.24,1.62-.76,2.21l.63,9.73c.11,1.63-.69,2.52-2.54,2.79-2.58.48-4.16,2.31-4,4.66.16,2.42,2.25,4.26,4.68,4.1l-.12-1.78c-1.44.09-2.68-1-2.77-2.43s.85-2.48,2.51-2.78c2.73-.4,4.2-2.11,4.03-4.67l-.59-9.12c.2.02.4.03.61,0s.4-.05.6-.09l.49,7.63c.12,1.78,1.01,3.94,4.58,4.1h.05c1.59,0,2.74.97,2.83,2.43s-1,2.68-2.43,2.77l.12,1.78c2.42-.16,4.26-2.25,4.1-4.68s-2.09-4.1-4.59-4.1v.02Z"/>
          <path d="M73.46,90.24l.12,1.78c1.44-.09,2.68,1,2.77,2.43s-1,2.68-2.43,2.77h0c-1.44.09-2.68-1-2.77-2.43l-.28-4.31c-.27.1-.56.16-.86.18-.32.02-.63,0-.92-.08l.28,4.32c.16,2.42,2.25,4.26,4.68,4.1h0c2.42-.16,4.26-2.25,4.1-4.68-.16-2.42-2.25-4.26-4.68-4.1h0Z"/>
        </g>
        <path d="M60.67,86.66c-.87.05-1.53.81-1.46,1.67s.81,1.52,1.67,1.46,1.52-.81,1.46-1.67-.81-1.53-1.67-1.46"/>
        <path d="M69.7,86.07c-.87.05-1.52.81-1.46,1.67s.81,1.52,1.67,1.46,1.52-.81,1.46-1.67-.81-1.53-1.67-1.46"/>
      </g>
    </g>
  </g>
  <g>
    <g>
      <rect class="cls-16" x="84.71" y="80.83" width="123.36" height="12.14" transform="translate(-15.01 32.76) rotate(-12.15)"/>
      <polygon class="cls-14" points="91.58 104.91 87.38 105.81 84.83 93.95 100.12 90.65 91.58 104.91"/>
      <polygon class="cls-3" points="124.42 97.83 109.13 101.12 117.68 86.86 132.98 83.57 124.42 97.83"/>
      <polygon class="cls-3" points="157.29 90.75 142 94.05 150.55 79.79 165.85 76.49 157.29 90.75"/>
      <polygon class="cls-3" points="190.19 83.67 174.89 86.96 183.45 72.7 198.75 69.41 190.19 83.67"/>
      <g>
        <rect class="cls-17" x="79.23" y="62.5" width="123.36" height="12.14" transform="translate(-15.05 53.23) rotate(-20.33)"/>
        <polygon class="cls-14" points="84.98 82.83 80.96 84.32 85.18 95.7 99.85 90.27 84.98 82.83"/>
        <polygon class="cls-3" points="116.49 71.16 101.82 76.59 116.69 84.02 131.36 78.59 116.49 71.16"/>
        <polygon class="cls-3" points="148.02 59.48 133.34 64.91 148.21 72.35 162.89 66.91 148.02 59.48"/>
        <polygon class="cls-3" points="179.58 47.78 164.91 53.22 179.78 60.66 194.45 55.22 179.58 47.78"/>
      </g>
      <path class="cls-15" d="M87.38,105.81l13.53,62.81c.38,1.74,2.1,2.86,3.83,2.48l114.28-24.61c1.74-.38,2.86-2.1,2.48-3.83l-13.53-62.81-120.59,25.97h0Z"/>
      <line class="cls-9" x1="99.26" y1="160.98" x2="219.86" y2="135"/>
      <line class="cls-9" x1="95.32" y1="142.65" x2="215.9" y2="116.67"/>
      <line class="cls-9" x1="127.99" y1="135.61" x2="131.94" y2="153.94"/>
      <line class="cls-9" x1="182.71" y1="123.82" x2="186.66" y2="142.15"/>
      <line class="cls-9" x1="159.56" y1="147.99" x2="161.89" y2="158.79"/>
    </g>
    <g>
      <rect class="cls-7" x="107.69" y="98.48" width="87.98" height="25.4" rx="2.7" ry="2.7" transform="translate(-20 34.41) rotate(-12.15)"/>
      <rect class="cls-4" x="109.19" y="99.9" width="84.98" height="22.53" rx="1.56" ry="1.56" transform="translate(-20 34.41) rotate(-12.15)"/>
      <rect x="123.44" y="104.81" width="56.04" height="13.16" transform="translate(-20.05 34.37) rotate(-12.15)"/>
      <g>
        <circle class="cls-8" cx="184.75" cy="99.86" r="1.64"/>
        <circle class="cls-8" cx="186.3" cy="108.02" r="1.64"/>
      </g>
      <circle class="cls-2" cx="118.83" cy="125.64" r=".88"/>
      <g>
        <g>
          <g>
            <path d="M114.53,122.17l.05.19.26-.05.18.85.19-.05-.18-.85.26-.05-.05-.19-.71.16h0Z"/>
            <path d="M116.13,122.03l-.04-.19-.69.15.23,1.04.68-.15-.05-.19-.48.1-.06-.31.43-.09-.05-.19-.43.09-.04-.16.49-.11h0Z"/>
            <path d="M116.95,121.65l.15.69-.61-.59-.19.04.23,1.04.19-.05-.15-.69.61.59.19-.04-.23-1.04-.19.05Z"/>
            <path d="M117.31,121.58l.05.19.26-.05.18.85.19-.05-.18-.85.26-.05-.05-.19-.71.16h0Z"/>
            <path d="M118.54,121.31l-.17.04-.17,1.13.21-.05.05-.3.35-.07.16.26.21-.05-.63-.96h0ZM118.47,121.92l.05-.27.16.23-.19.05h0Z"/>
            <path d="M119.95,121.77c-.05.1-.14.17-.26.2-.19.05-.38-.08-.43-.27s.08-.38.27-.43c.11-.03.23,0,.31.08l.03.03.13-.15-.03-.03c-.06-.05-.15-.1-.23-.12s-.17-.03-.26,0c-.3.06-.49.37-.43.67.02.07.05.15.09.2.04.06.09.11.16.15s.13.06.2.08c.07,0,.15,0,.22,0,.08-.02.16-.05.23-.11.06-.05.12-.12.16-.2l.02-.04-.18-.08-.02.04.02-.02Z"/>
            <path d="M120.52,121.78l-.18-.85-.19.05.23,1.04.73-.16-.05-.19-.53.12h0Z"/>
            <path d="M121.76,120.82l-.04-.19-.69.15.23,1.04.68-.15-.05-.19-.48.1-.06-.31.43-.09-.05-.19-.43.09-.04-.16.49-.11h0Z"/>
            <path d="M117.37,123.62s-.06-.05-.11-.06c-.08-.03-.16-.02-.21-.02h-.06c-.14,0-.27,0-.31-.16-.02-.07.02-.16.08-.21.12-.09.29-.08.46,0l.03-.05c-.1-.05-.2-.07-.3-.07-.08,0-.16.03-.23.07-.05.04-.07.07-.09.12-.02.05-.03.1,0,.15.02.09.07.16.16.18.07.03.15.02.2.02h.06s.12,0,.19.02c.08.03.13.07.14.15.02.09,0,.18-.09.24-.1.07-.28.1-.51-.03l-.03.05c.11.06.22.09.33.09.04,0,.07,0,.1,0,.05,0,.1-.04.15-.06.05-.04.08-.07.1-.13.02-.05.03-.11,0-.17,0-.05-.04-.09-.07-.13l.02.02Z"/>
            <path d="M118.05,122.81l-.22.52-.42-.38-.07.02.47.42.12.54h.05l-.12-.56.26-.58-.06.02Z"/>
            <path d="M119.01,122.6l.2.94-.84-.81h-.05l.23,1.06h.05l-.2-.95.84.81h.06l-.23-1.06h-.06Z"/>
            <path d="M120.08,123.43c-.27.05-.54-.12-.59-.38s.11-.54.38-.59c.14-.03.28,0,.4.09l.04-.05c-.06-.05-.14-.07-.21-.09-.08-.02-.16-.02-.24,0s-.15.05-.2.08c-.06.05-.11.09-.15.16s-.06.13-.08.2c0,.07,0,.15,0,.22s.05.15.09.2c.05.06.09.11.16.15s.13.06.2.08c.07,0,.15,0,.22,0,.08-.02.16-.05.22-.1.06-.05.11-.1.16-.17l-.05-.03c-.07.13-.19.21-.33.25h0Z"/>
          </g>
          <g>
            <path d="M116.64,118.05l-.27-1.24c-.05.03-.12.05-.18.07-.06,0-.13.02-.18,0l.27,1.23c.06.29-.13.59-.42.65s-.59-.13-.65-.42.13-.59.42-.65l-.08-.37c-.49.11-.81.59-.7,1.1s.6.81,1.1.7.81-.6.7-1.1h0Z"/>
            <g>
              <path d="M118.6,118.52c-.49.05-.61-.17-.67-.42l-.37-1.69c-.14-.09-.24-.23-.28-.4-.07-.35.15-.69.49-.76.14-.03.27,0,.39.05.23-.74.28-1.62.16-2.16-.23-1.05-1.21-1.47-2.26-1.25-1.05.23-1.78,1.02-1.55,2.07.12.55.53,1.32,1.04,1.9.09-.1.2-.17.34-.2.35-.07.69.15.76.49.04.17,0,.35-.09.49l.43,2c.07.34-.06.54-.44.66-.52.17-.8.6-.69,1.09s.6.81,1.1.7l-.08-.37c-.29.06-.59-.13-.65-.42s.1-.54.44-.66c.56-.16.81-.57.7-1.1l-.4-1.88s.08,0,.13-.02.08-.02.12-.04l.34,1.57c.08.37.33.79,1.08.71h0c.33-.05.59.12.66.42s-.13.59-.42.65l.08.37c.49-.11.81-.6.7-1.1s-.56-.79-1.08-.71h.02Z"/>
              <path d="M118.75,116.3l.08.37c.29-.06.59.13.65.42s-.13.59-.42.65h0c-.29.06-.59-.13-.65-.42l-.19-.89c-.05.03-.11.05-.17.06-.06.02-.13.02-.19,0l.19.89c.11.49.6.81,1.1.7h0c.49-.11.81-.6.7-1.1-.11-.49-.6-.81-1.1-.7h0Z"/>
            </g>
          </g>
        </g>
        <path d="M115.99,115.95c-.17.04-.29.21-.26.39s.21.29.39.26.29-.21.26-.39-.21-.29-.39-.26Z"/>
        <path d="M117.84,115.55c-.17.04-.29.21-.26.39s.21.29.39.26.29-.21.26-.39-.21-.29-.39-.26Z"/>
      </g>
      <g class="cls-20">
        <text class="cls-18" transform="translate(129.39 120.5) rotate(-12.15)"><tspan x="0" y="0">08:56:</tspan></text>
        <text class="cls-18" transform="translate(152.61 115.5) rotate(-12.15)"><tspan x="0" y="0">3</tspan></text>
        <text class="cls-18" transform="translate(158.05 114.33) rotate(-12.15)"><tspan x="0" y="0">1</tspan></text>
        <text class="cls-19" transform="translate(163.61 113.13) rotate(-12.15)"><tspan x="0" y="0">:</tspan></text>
        <text class="cls-18" transform="translate(164.46 112.95) rotate(-12.15)"><tspan x="0" y="0">0</tspan></text>
        <text class="cls-18" transform="translate(169.91 111.78) rotate(-12.15)"><tspan x="0" y="0">2</tspan></text>
      </g>
    </g>
  </g>
  <g>
    <g>
      <rect class="cls-5" x="191.96" y="57.38" width="89.65" height="67.78" rx="4.74" ry="4.74" transform="translate(117.81 315.42) rotate(-83.12)"/>
      <rect class="cls-11" x="237.78" y="27.76" width="5.2" height="67.78" transform="translate(150.38 292.91) rotate(-83.12)"/>
      <path class="cls-12" d="M236.56,54.03l9.33,1.13c2.47.3,4.24,2.55,3.94,5.02l-18.28-2.21c.3-2.47,2.55-4.24,5.02-3.94h0Z"/>
      <g>
        <circle class="cls-1" cx="234.04" cy="56.71" r=".72"/>
        <circle class="cls-1" cx="237.46" cy="57.13" r=".72"/>
        <circle class="cls-1" cx="240.87" cy="57.54" r=".72"/>
        <circle class="cls-1" cx="244.29" cy="57.95" r=".72"/>
        <path class="cls-1" d="M247.7,57.64c.4,0,.72.32.72.72s-.32.72-.72.72-.72-.32-.72-.72.32-.72.72-.72Z"/>
      </g>
      <g>
        <circle class="cls-1" cx="235.95" cy="55.28" r=".72"/>
        <circle class="cls-1" cx="239.36" cy="55.69" r=".72"/>
        <circle class="cls-1" cx="242.78" cy="56.1" r=".72"/>
        <circle class="cls-1" cx="246.19" cy="56.51" r=".72"/>
      </g>
    </g>
    <g>
      <polygon points="216.31 115.06 216.2 116 217.44 116.15 216.94 120.27 217.89 120.39 218.39 116.27 219.63 116.42 219.75 115.48 216.31 115.06"/>
      <polygon points="219.89 120.63 220.5 115.57 223.83 115.98 223.71 116.89 221.34 116.61 221.25 117.35 223.32 117.61 223.21 118.55 221.13 118.3 220.96 119.8 223.26 120.08 223.15 121.02 219.89 120.63"/>
      <polygon points="227.4 121.53 225.55 117.94 225.16 121.26 224.21 121.15 224.81 116.1 225.73 116.21 227.57 119.78 227.97 116.47 228.92 116.59 228.31 121.64 227.4 121.53"/>
      <polygon points="230.38 121.89 230.88 117.77 229.64 117.62 229.75 116.69 233.18 117.1 233.07 118.04 231.83 117.89 231.34 122.01 230.38 121.89"/>
      <path d="M235.38,120.16l-.32-1.28-.61,1.17.93.11ZM235.99,122.57l-.36-1.43-1.67-.2-.69,1.3-1.02-.12,2.55-4.82.86.1,1.35,5.29s-1.03-.12-1.03-.12Z"/>
      <path d="M238.76,122.77c-.29-.17-.56-.4-.77-.67-.22-.27-.38-.58-.47-.92-.1-.35-.14-.7-.09-1.05.17-1.46,1.51-2.5,2.97-2.32.41.05.81.2,1.15.43.34.22.63.54.83.9l.1.16-.82.47-.09-.16c-.27-.48-.73-.78-1.28-.84-.93-.11-1.79.56-1.9,1.49s.56,1.8,1.5,1.91c.54.06,1.07-.12,1.45-.51l.12-.12.69.64-.13.13c-.29.3-.63.53-1.03.67-.38.14-.8.18-1.21.14-.36-.05-.7-.16-1.01-.33"/>
      <polygon points="242.79 123.39 243.41 118.33 244.36 118.45 243.86 122.58 246.44 122.89 246.33 123.81 242.79 123.39"/>
      <polygon points="247.72 118.85 247.1 123.9 250.37 124.3 250.49 123.36 248.18 123.09 248.36 121.58 250.43 121.83 250.54 120.88 248.47 120.64 248.56 119.89 250.94 120.18 251.05 119.25 247.72 118.85"/>
      <path d="M224.73,127.79c-.47-.17-.93-.49-1.34-.93l.21-.19c.84.93,1.73,1.09,2.28.92.44-.14.72-.49.78-.95.05-.35-.09-.63-.41-.86-.27-.2-.61-.31-.82-.38-.05-.02-.09-.04-.13-.05-.05-.02-.09-.04-.16-.05-.25-.08-.6-.19-.89-.41-.37-.27-.51-.64-.46-1.07.03-.24.13-.47.29-.66.16-.18.37-.31.61-.4.36-.12.75-.1,1.13.02.45.14.85.38,1.23.78l-.2.2c-.64-.68-1.41-.95-2.07-.74-.4.14-.68.45-.72.82-.08.71.55.98,1.15,1.18.06.02.12.04.16.05.03,0,.07.02.11.04.21.06.59.19.91.42.18.13.32.28.4.45.1.21.15.43.11.68-.04.28-.14.55-.31.75-.16.2-.39.34-.66.42-.24.07-.49.1-.76.06-.16-.02-.32-.06-.49-.12"/>
      <polygon points="231.18 123.4 229.37 125.39 228.09 123.03 227.75 122.99 229.18 125.62 228.87 128.25 229.16 128.29 229.47 125.66 231.51 123.44 231.18 123.4"/>
      <polygon points="235.79 123.96 235.24 128.52 232.7 123.59 232.42 123.55 231.81 128.61 232.09 128.64 232.64 124.09 235.17 129.01 235.46 129.05 236.08 123.99 235.79 123.96"/>
      <g>
        <path d="M238.29,129.27c-.3-.17-.56-.4-.78-.67-.21-.27-.37-.58-.47-.92-.09-.34-.13-.7-.08-1.05s.16-.7.33-1.01c.17-.29.4-.56.67-.78.27-.21.58-.37.92-.47.34-.09.7-.11,1.05-.06.38.05.75.16,1.08.36.31.19.58.45.8.75l-.24.16c-.38-.56-1-.93-1.67-1.02-1.31-.16-2.49.78-2.65,2.09-.16,1.31.77,2.5,2.08,2.65.68.08,1.35-.14,1.87-.59l.19.22c-.28.25-.59.43-.95.54-.37.12-.75.15-1.13.1-.36-.05-.7-.15-1.01-.32"/>
        <path d="M232.15,99.8l.71-5.95c-.3.05-.61.07-.92.03-.3-.04-.59-.12-.85-.23l-.71,5.94c-.17,1.43-1.47,2.45-2.9,2.28s-2.45-1.47-2.28-2.9,1.47-2.45,2.9-2.28l.21-1.78c-2.41-.29-4.6,1.43-4.89,3.83s1.43,4.6,3.83,4.9,4.6-1.43,4.89-3.83h0Z"/>
        <g>
          <path d="M240.29,104.96c-2.32-.54-2.5-1.72-2.36-2.92l.99-8.2c-.49-.61-.73-1.41-.63-2.24.2-1.67,1.71-2.86,3.38-2.65.67.08,1.25.38,1.71.81,2.18-2.98,3.79-6.83,4.11-9.48.61-5.08-3.15-8.53-8.24-9.14s-9.56,1.84-10.17,6.92c-.32,2.65.33,6.76,1.73,10.19.55-.31,1.19-.46,1.86-.38,1.66.2,2.85,1.71,2.65,3.38-.1.83-.53,1.55-1.15,2.03l-1.16,9.67c-.19,1.62-1.14,2.34-3.01,2.27-2.63,0-4.5,1.5-4.79,3.84s1.43,4.6,3.83,4.89l.21-1.78c-1.43-.17-2.45-1.47-2.28-2.9s1.3-2.28,2.97-2.27c2.75.11,4.51-1.29,4.82-3.84l1.09-9.07c.19.05.39.1.59.13s.4.03.61.02l-.92,7.6c-.21,1.78.27,4.06,3.74,4.88h.04c1.57.29,2.51,1.46,2.33,2.92s-1.47,2.45-2.9,2.28l-.21,1.78c2.41.29,4.6-1.43,4.89-3.83s-1.3-4.41-3.76-4.88h.02Z"/>
          <path d="M244.41,95.18l-.21,1.78c1.43.17,2.45,1.47,2.28,2.9s-1.47,2.45-2.9,2.28h0c-1.43-.17-2.45-1.47-2.28-2.9l.51-4.28c-.28.05-.58.05-.88.03-.32-.04-.62-.13-.9-.26l-.52,4.3c-.29,2.41,1.43,4.6,3.83,4.9h0c2.41.29,4.6-1.43,4.89-3.83s-1.43-4.6-3.83-4.89v-.02Z"/>
        </g>
        <path d="M232.49,89.31c-.86-.1-1.65.51-1.75,1.37s.51,1.65,1.37,1.75,1.65-.51,1.75-1.37-.51-1.65-1.37-1.75"/>
        <path d="M241.49,90.4c-.86-.1-1.65.51-1.75,1.37s.51,1.65,1.37,1.75,1.65-.51,1.75-1.37-.51-1.65-1.37-1.75"/>
      </g>
    </g>
  </g>
</svg>