<?xml version="1.0" encoding="UTF-8"?>
<svg id="Devices" xmlns="http://www.w3.org/2000/svg" width="300" height="200" viewBox="0 0 300 200">
  <defs>
    <style>
      .cls-1, .cls-2, .cls-3, .cls-4, .cls-5, .cls-6, .cls-7, .cls-8, .cls-9, .cls-10, .cls-11, .cls-12 {
        stroke: #000;
      }

      .cls-1, .cls-4 {
        stroke-miterlimit: 10;
      }

      .cls-1, .cls-4, .cls-11 {
        stroke-width: 1px;
      }

      .cls-1, .cls-8 {
        fill: #c9c9c9;
      }

      .cls-2 {
        fill: #c9c9c9;
      }

      .cls-2, .cls-3, .cls-5, .cls-6, .cls-7, .cls-8, .cls-9, .cls-10, .cls-11, .cls-12 {
        stroke-linecap: round;
        stroke-linejoin: round;
      }

      .cls-3 {
        fill: none;
      }

      .cls-4, .cls-13, .cls-7 {
        fill: #ff4600;
      }

      .cls-14 {
        fill: #fff;
      }

      .cls-6 {
        fill: #00aa82;
      }

      .cls-8, .cls-9, .cls-10 {
        stroke-width: 1px;
      }

      .cls-9 {
        fill: #929292;
      }

      .cls-10, .cls-11 {
        fill: #646464;
      }

      .cls-12 {
        fill: #fab900;
      }
    </style>
  </defs>
  <g>
    <rect class="cls-10" x="78.73" y="33.09" width="98.38" height="171.78" rx="4.34" ry="4.34" transform="translate(-5.58 231.66) rotate(-83.09)"/>
    <path class="cls-8" d="M53.63,73l13.11,1.59-1.47,12.12-13.11-1.59c-1.34-.16-2.28-1.38-2.12-2.71l.88-7.28c.16-1.34,1.38-2.28,2.71-2.12h0Z"/>
    <path class="cls-8" d="M51.54,90.26l13.11,1.59-1.47,12.12-13.11-1.59c-1.34-.16-2.28-1.38-2.12-2.71l.88-7.28c.16-1.34,1.38-2.28,2.71-2.12h0Z"/>
    <path class="cls-8" d="M49.44,107.52l13.11,1.59-1.47,12.12-13.11-1.59c-1.34-.16-2.28-1.38-2.12-2.71l.88-7.28c.16-1.34,1.38-2.28,2.71-2.12h0Z"/>
    <path class="cls-8" d="M47.36,124.77l13.11,1.59-1.47,12.12-13.11-1.59c-1.34-.16-2.28-1.38-2.12-2.71l.88-7.28c.16-1.34,1.38-2.28,2.71-2.12h0Z"/>
    <path class="cls-8" d="M45.26,142.02l13.11,1.59-1.47,12.12-13.11-1.59c-1.34-.16-2.28-1.38-2.12-2.71l.88-7.28c.16-1.34,1.38-2.28,2.71-2.12h0Z"/>
    <rect class="cls-8" x="140.62" y="102.39" width="20.82" height="108.52" transform="translate(-22.65 287.73) rotate(-83.09)"/>
    <path class="cls-9" d="M66.74,74.59l32.45,3.93c1.34.16,2.28,1.38,2.12,2.71l-.88,7.28c-.16,1.34-1.38,2.28-2.71,2.12l-32.45-3.93,1.47-12.12h0Z"/>
    <path class="cls-9" d="M64.65,91.85l32.45,3.93c1.34.16,2.28,1.38,2.12,2.71l-.88,7.28c-.16,1.34-1.38,2.28-2.71,2.12l-32.45-3.93,1.47-12.12h0Z"/>
    <path class="cls-9" d="M62.56,109.1l32.45,3.93c1.34.16,2.28,1.38,2.12,2.71l-.88,7.28c-.16,1.34-1.38,2.28-2.71,2.12l-32.45-3.93,1.47-12.12h0Z"/>
    <path class="cls-9" d="M60.46,126.36l32.45,3.93c1.34.16,2.28,1.38,2.12,2.71l-.88,7.28c-.16,1.34-1.38,2.28-2.71,2.12l-32.45-3.93,1.47-12.12h0Z"/>
    <path class="cls-9" d="M58.38,143.61l32.45,3.93c1.34.16,2.28,1.38,2.12,2.71l-.88,7.28c-.16,1.34-1.38,2.28-2.71,2.12l-32.45-3.93,1.47-12.12h0Z"/>
    <path class="cls-9" d="M108.59,79.66l102.03,12.37c1.57.19,2.69,1.62,2.5,3.19l-6.98,57.61-107.73-13.06,6.98-57.61c.19-1.57,1.62-2.69,3.19-2.5Z"/>
    <line class="cls-3" x1="95.91" y1="160.46" x2="203.64" y2="173.51"/>
    <line class="cls-3" x1="96.75" y1="153.56" x2="204.47" y2="166.63"/>
    <line class="cls-3" x1="97.58" y1="146.67" x2="205.31" y2="159.73"/>
    <g>
      <circle class="cls-7" cx="53.78" cy="66.44" r="1.69"/>
      <circle class="cls-12" cx="60.03" cy="67.2" r="1.69"/>
      <circle class="cls-6" cx="66.27" cy="67.97" r="1.69"/>
    </g>
    <circle class="cls-2" cx="211.74" cy="85.89" r="2.77"/>
    <line class="cls-3" x1="117.75" y1="74.2" x2="158.22" y2="79.11"/>
    <line class="cls-3" x1="181.51" y1="149.86" x2="180.68" y2="156.75"/>
    <line class="cls-3" x1="174.9" y1="149.06" x2="174.07" y2="155.95"/>
    <line class="cls-3" x1="125.3" y1="143.05" x2="124.46" y2="149.94"/>
    <line class="cls-3" x1="196.15" y1="158.63" x2="195.31" y2="165.52"/>
    <line class="cls-3" x1="166.43" y1="155.02" x2="165.61" y2="161.92"/>
    <line class="cls-3" x1="127.47" y1="150.3" x2="126.64" y2="157.19"/>
    <line class="cls-3" x1="106.08" y1="154.7" x2="105.26" y2="161.59"/>
    <line class="cls-3" x1="113.26" y1="155.57" x2="112.43" y2="162.45"/>
    <line class="cls-3" x1="155.51" y1="160.69" x2="154.67" y2="167.57"/>
    <line class="cls-3" x1="188.35" y1="164.67" x2="187.52" y2="171.56"/>
    <line class="cls-3" x1="68.99" y1="77.79" x2="85.06" y2="79.74"/>
    <line class="cls-3" x1="66.16" y1="94.95" x2="82.22" y2="96.9"/>
    <line class="cls-3" x1="64.44" y1="112.25" x2="80.49" y2="114.19"/>
    <line class="cls-3" x1="62.34" y1="129.51" x2="78.41" y2="131.45"/>
    <line class="cls-3" x1="60.28" y1="146.76" x2="76.34" y2="148.71"/>
  </g>
  <g>
    <g>
      <rect class="cls-11" x="179.44" y="26.83" width="59.17" height="114.08" rx="5.85" ry="5.85" transform="translate(-4.36 11.8) rotate(-3.2)"/>
      <line class="cls-3" x1="198.71" y1="33.14" x2="209.91" y2="32.51"/>
      <path class="cls-5" d="M228.94,29.04l-10.3.57c-.58.04-1.03.53-.99,1.11l.1,1.78c.06,1.2-.85,2.22-2.05,2.3l-18.8,1.05c-1.2.06-2.22-.85-2.3-2.05l-.1-1.78c-.04-.58-.53-1.03-1.11-.99l-10.3.57c-1.79.1-3.15,1.63-3.05,3.42l5.62,100.66c.1,1.79,1.63,3.15,3.42,3.05l45.83-2.56c1.79-.1,3.15-1.63,3.05-3.42l-5.62-100.66c-.1-1.79-1.63-3.15-3.42-3.05h0Z"/>
      <circle cx="213.43" cy="32.32" r=".8"/>
    </g>
    <rect class="cls-1" x="185.93" y="70.77" width="45.28" height="9.88" rx="2.14" ry="2.14" transform="translate(-3.9 11.76) rotate(-3.2)"/>
    <rect class="cls-4" x="186.68" y="84.13" width="45.28" height="9.88" rx="2.14" ry="2.14" transform="translate(-4.65 11.82) rotate(-3.2)"/>
    <rect class="cls-1" x="187.42" y="97.47" width="45.28" height="9.88" rx="2.14" ry="2.14" transform="translate(-5.39 11.89) rotate(-3.2)"/>
    <rect class="cls-1" x="188.17" y="110.82" width="45.28" height="9.88" rx="2.14" ry="2.14" transform="translate(-6.13 11.95) rotate(-3.2)"/>
    <g>
      <path class="cls-13" d="M211.99,59.48h0c1.31-.07,2.31-1.19,2.24-2.51s-1.19-2.31-2.51-2.24l.05.97c.77-.05,1.44.56,1.49,1.33s-.56,1.44-1.33,1.49h0c-.77.05-1.44-.56-1.49-1.33l-.25-4.4c1.16-1.9,1.84-4.59,1.74-6.27-.15-2.76-2.48-4.24-5.24-4.08s-4.91,1.88-4.76,4.64c.09,1.68,1.07,4.27,2.43,6.03l.29,5.3c.05.77-.56,1.44-1.33,1.49s-1.44-.56-1.49-1.33.56-1.44,1.33-1.49l-.05-.97c-1.31.07-2.31,1.19-2.24,2.51s1.19,2.31,2.51,2.24,2.31-1.19,2.24-2.51l-.24-4.16c.22.18.46.34.68.46l.29,5.29c.05.88-.38,1.36-1.38,1.49-1.39.25-2.25,1.22-2.19,2.5s1.19,2.31,2.51,2.24l-.05-.97c-.77.05-1.44-.56-1.49-1.33s.47-1.33,1.37-1.49c1.48-.2,2.28-1.11,2.2-2.5l-.27-4.93c.11,0,.22.02.33,0s.22-.03.33-.05l.23,4.13c.05.97.52,2.14,2.45,2.24h.02c.87,0,1.48.54,1.51,1.33s-.56,1.44-1.33,1.49l.05.97c1.31-.07,2.31-1.19,2.24-2.51s-1.1-2.22-2.46-2.24c-1.28-.07-1.49-.68-1.53-1.33l-.26-4.49c.22-.15.43-.33.63-.54l.18,3.27c.07,1.3,1.19,2.31,2.51,2.24h.02Z"/>
      <g>
        <path class="cls-14" d="M204.97,55.23c-.9.05-1.68-.65-1.73-1.55s.65-1.68,1.55-1.73,1.68.65,1.73,1.55-.65,1.68-1.55,1.73Z"/>
        <path class="cls-14" d="M209.86,54.95c-.9.05-1.68-.65-1.73-1.55s.65-1.68,1.55-1.73,1.68.65,1.73,1.55-.65,1.68-1.55,1.73Z"/>
      </g>
      <path d="M204.84,52.75c-.46.03-.83.43-.8.89s.43.83.89.8.83-.43.8-.89-.43-.83-.89-.8Z"/>
      <path d="M209.72,52.48c-.46.03-.83.43-.8.89s.43.83.89.8.83-.43.8-.89-.43-.83-.89-.8Z"/>
    </g>
  </g>
</svg>